<svg width="20" height="12" viewBox="0 0 20 12" fill="none" xmlns="http://www.w3.org/2000/svg">
<g clip-path="url(#clip0_17_103)">
<path d="M5.64806 4.343C5.64291 4.54288 5.66756 4.74241 5.72122 4.93502C5.78033 5.09973 5.85149 5.25986 5.93415 5.4141C5.96374 5.45972 5.97988 5.51274 5.98073 5.56711C5.98073 5.63361 5.9408 5.70019 5.85434 5.76665L5.43529 6.04604C5.38473 6.08246 5.32461 6.10326 5.26236 6.10589C5.1866 6.10068 5.11548 6.06749 5.06282 6.01277C4.97316 5.91646 4.89294 5.81178 4.82327 5.70015C4.75677 5.58707 4.69019 5.46061 4.61707 5.30768C4.09824 5.91954 3.44635 6.22547 2.6614 6.22547C2.10247 6.22547 1.65699 6.06578 1.33106 5.74639C1.00513 5.42699 0.838816 5.00152 0.838816 4.46939C0.838816 3.90399 1.03836 3.44501 1.44414 3.09912C1.84992 2.75322 2.38867 2.58026 3.0738 2.58026C3.30976 2.58219 3.54532 2.59997 3.7789 2.63349C4.02502 2.66676 4.2778 2.71995 4.54384 2.77984V2.29425C4.54384 1.78855 4.43738 1.43619 4.23122 1.22995C4.01829 1.02375 3.65916 0.923981 3.14696 0.923981C2.90489 0.923971 2.6637 0.952999 2.42855 1.01045C2.18402 1.0687 1.94395 1.14428 1.71015 1.23661C1.6345 1.27045 1.55673 1.29933 1.47733 1.32307C1.44289 1.33443 1.40709 1.34114 1.37087 1.34303C1.27775 1.34303 1.23117 1.27653 1.23117 1.13683V0.810901C1.23117 0.704437 1.24448 0.624589 1.27775 0.578087C1.32795 0.517455 1.39179 0.469581 1.46406 0.438391C1.73086 0.306384 2.01214 0.205934 2.3022 0.139075C2.64115 0.052104 2.98997 0.0096178 3.33988 0.0126869C4.1316 0.0126869 4.71015 0.192269 5.08266 0.551471C5.44852 0.910673 5.63476 1.45611 5.63476 2.18782V4.343H5.64806ZM2.94745 5.35407C3.1808 5.3515 3.41219 5.31106 3.63258 5.23433C3.87673 5.14987 4.09456 5.00307 4.26449 4.80847C4.37171 4.68587 4.44912 4.54011 4.49065 4.38262C4.53635 4.19315 4.55868 3.9988 4.55715 3.80391V3.52482C4.35547 3.47573 4.15119 3.43797 3.94528 3.41174C3.73786 3.38547 3.529 3.3722 3.31992 3.37201C2.87426 3.37201 2.54832 3.45847 2.32882 3.63817C2.10931 3.81786 2.00289 4.07053 2.00289 4.40311C2.00289 4.71574 2.08273 4.94855 2.24901 5.10821C2.4087 5.27452 2.64148 5.35433 2.94745 5.35433V5.35407ZM8.28883 6.07247C8.16909 6.07247 8.08928 6.05251 8.03605 6.00597C7.98282 5.96604 7.93628 5.87289 7.89636 5.74654L6.33312 0.604703C6.30282 0.518633 6.28273 0.4293 6.27327 0.338543C6.27327 0.232079 6.32651 0.172231 6.43297 0.172231H7.08483C7.21122 0.172231 7.29776 0.192193 7.34426 0.238733C7.3975 0.278657 7.43738 0.371813 7.47734 0.498163L8.59484 4.90163L9.63248 0.498277C9.66575 0.365197 9.70564 0.278771 9.75887 0.238847C9.8121 0.198923 9.90522 0.172345 10.025 0.172345H10.5574C10.6837 0.172345 10.7703 0.192307 10.8235 0.238847C10.8767 0.278771 10.9233 0.371927 10.9499 0.498277L12.0009 4.95498L13.1513 0.498277C13.1912 0.365197 13.2377 0.278771 13.2844 0.238847C13.3376 0.198923 13.424 0.172345 13.5438 0.172345H14.1624C14.2689 0.172345 14.3287 0.225577 14.3287 0.338657C14.3272 0.374446 14.3227 0.410051 14.3154 0.445121C14.305 0.501862 14.2894 0.557531 14.2688 0.611433L12.6658 5.75327C12.6259 5.8863 12.5793 5.97277 12.5261 6.0127C12.4509 6.06083 12.3624 6.0841 12.2733 6.0792H11.7012C11.5748 6.0792 11.4883 6.05924 11.435 6.0127C11.3818 5.96616 11.3353 5.87962 11.3086 5.74654L10.2777 1.45611L9.25328 5.73988C9.22001 5.87296 9.18012 5.95939 9.12689 6.00604C9.07366 6.0527 8.98054 6.07255 8.86073 6.07255L8.28883 6.07247ZM16.8364 6.25205C16.4914 6.25242 16.1476 6.21223 15.812 6.13232C15.4794 6.05247 15.22 5.96601 15.0471 5.86616C14.9406 5.80631 14.8675 5.73977 14.8409 5.67984C14.815 5.62112 14.8014 5.55771 14.8009 5.49353V5.15452C14.8009 5.01482 14.8542 4.94832 14.9539 4.94832C14.9947 4.94846 15.0351 4.9552 15.0737 4.96829C15.1136 4.98159 15.1734 5.00821 15.24 5.03479C15.4749 5.13813 15.7202 5.21617 15.9717 5.2676C16.2322 5.32049 16.4974 5.34724 16.7633 5.34745C17.1823 5.34745 17.5083 5.27429 17.7344 5.12794C17.8428 5.06257 17.9319 4.96965 17.9927 4.85866C18.0534 4.74766 18.0837 4.62254 18.0804 4.49604C18.0828 4.41041 18.0681 4.32516 18.0373 4.24524C18.0065 4.16531 17.9601 4.0923 17.9009 4.03041C17.7811 3.90402 17.5549 3.79087 17.229 3.6844L16.2643 3.38513C15.7787 3.23216 15.4195 3.006 15.2001 2.70661C14.9859 2.43055 14.869 2.09146 14.8675 1.74208C14.8621 1.48453 14.924 1.23002 15.0471 1.00372C15.1659 0.789715 15.3293 0.603713 15.5261 0.458277C15.7335 0.301323 15.968 0.184018 16.2179 0.112269C16.4902 0.0338921 16.7725 -0.00414226 17.0559 -0.00062109C17.2049 -0.00170114 17.3537 0.00719074 17.5015 0.0259949C17.6545 0.0459569 17.7943 0.072573 17.9339 0.099151C18.067 0.132421 18.1933 0.165653 18.3131 0.205615C18.4101 0.23564 18.5038 0.275771 18.5925 0.325349C18.6708 0.364846 18.739 0.421734 18.792 0.491661C18.8353 0.55639 18.8563 0.633441 18.8519 0.711167V1.02379C18.8519 1.16349 18.7986 1.23672 18.6988 1.23672C18.6456 1.23672 18.5592 1.2101 18.4461 1.15687C18.0669 0.983918 17.6412 0.897441 17.1689 0.897441C16.7898 0.897441 16.4904 0.957289 16.2842 1.08375C16.078 1.21022 15.9716 1.40315 15.9716 1.67577C15.9698 1.7641 15.9866 1.85182 16.021 1.9332C16.0554 2.01458 16.1066 2.08779 16.1712 2.14805C16.3042 2.27444 16.5503 2.40083 16.9029 2.51391L17.8474 2.81307C18.3265 2.96608 18.6723 3.17893 18.8785 3.45163C19.0815 3.71921 19.1892 4.04702 19.1844 4.38288C19.1879 4.65006 19.1286 4.91433 19.0115 5.15448C18.8935 5.38215 18.7279 5.58179 18.5259 5.73985C18.3063 5.91079 18.0555 6.03736 17.7876 6.11247C17.4795 6.20723 17.1587 6.25434 16.8363 6.25217L16.8364 6.25205Z" fill="#252F3E"/>
<path d="M18.0816 9.48566C15.8932 11.102 12.7136 11.9601 9.97976 11.9601C6.14831 11.9603 2.69602 10.5434 0.088601 8.1887C-0.117597 8.00239 0.068639 7.74968 0.314761 7.89592C3.13511 9.53227 6.61401 10.5233 10.2126 10.5233C12.6405 10.5233 15.3079 10.0176 17.7624 8.98007C18.1283 8.81376 18.4409 9.21961 18.0818 9.48577L18.0816 9.48566Z" fill="#FF9900"/>
<path d="M18.9915 8.44731C18.7121 8.08811 17.1423 8.27439 16.4305 8.36085C16.2176 8.38747 16.1844 8.20115 16.3773 8.06153C17.6278 7.18351 19.6832 7.43625 19.9227 7.72895C20.1622 8.02826 19.8562 10.0837 18.6855 11.0682C18.5059 11.2212 18.3329 11.1413 18.4127 10.9418C18.6788 10.2832 19.2709 8.79986 18.9915 8.44731Z" fill="#FF9900"/>
</g>
<defs>
<clipPath id="clip0_17_103">
<rect width="20" height="11.9599" fill="white"/>
</clipPath>
</defs>
</svg>
