<svg width="20" height="20" viewBox="0 0 20 20" fill="none" xmlns="http://www.w3.org/2000/svg">
<g clip-path="url(#clip0_17_115)">
<path d="M13.3152 6.39691L15.0536 4.65834L15.1691 3.92669C12.0016 1.04583 6.96587 1.37279 4.10955 4.60819C3.31128 5.525 2.73161 6.61111 2.41427 7.7846L3.03662 7.6965L6.51362 7.12413L6.78159 6.84977C7.52528 6.02751 8.55457 5.51984 9.65963 5.43022C10.7647 5.34061 11.8623 5.67581 12.7288 6.36749L13.3152 6.39691Z" fill="#EA4335"/>
<path d="M17.5287 7.73115C17.1292 6.25947 16.3086 4.93645 15.1678 3.92446L12.7276 6.36465C13.2361 6.7801 13.6436 7.30559 13.9194 7.90148C14.1952 8.49737 14.3321 9.14811 14.3197 9.80461V10.2375C14.8924 10.2375 15.4417 10.465 15.8467 10.87C16.2516 11.275 16.4791 11.8242 16.4791 12.3969C16.4791 12.9696 16.2516 13.5189 15.8467 13.9239C15.4417 14.3288 14.8924 14.5563 14.3197 14.5563H9.971L9.5442 15.02V17.6251L9.971 18.0343H14.3199C15.5313 18.0471 16.7146 17.6689 17.6942 16.956C18.6738 16.2431 19.3974 15.2333 19.7577 14.0766C20.1179 12.9199 20.0957 11.6778 19.6942 10.5348C19.2927 9.3917 18.5332 8.40853 17.5287 7.73115Z" fill="#4285F4"/>
<path d="M5.62683 18.037H9.97097V14.56H5.62683C5.31946 14.5598 5.01574 14.4934 4.73635 14.3652L4.12009 14.5539L2.36933 16.2924L2.2169 16.8839C3.197 17.6306 4.39472 18.0356 5.62683 18.037Z" fill="#34A853"/>
<path d="M5.6278 6.75586C4.45096 6.76302 3.30573 7.13754 2.35206 7.82711C1.39838 8.51669 0.683872 9.48689 0.308317 10.6022C-0.0672387 11.7176 -0.0850905 12.9223 0.257255 14.0483C0.5996 15.1743 1.28505 16.1652 2.21787 16.8828L4.73748 14.3631C4.41732 14.2185 4.13702 13.9984 3.92065 13.7216C3.70428 13.4448 3.55828 13.1197 3.4952 12.774C3.43211 12.4284 3.45382 12.0727 3.55846 11.7373C3.66309 11.4019 3.84753 11.097 4.09595 10.8485C4.34437 10.6001 4.64935 10.4157 4.98473 10.311C5.3201 10.2064 5.67586 10.1847 6.02146 10.2478C6.36707 10.3109 6.69222 10.4569 6.969 10.6732C7.24578 10.8896 7.46593 11.1699 7.61056 11.4901L10.1302 8.97046C9.60133 8.27909 8.91972 7.71943 8.13865 7.33525C7.35759 6.95106 6.49824 6.75276 5.6278 6.75586Z" fill="#FBBC05"/>
</g>
<defs>
<clipPath id="clip0_17_115">
<rect width="20" height="20" fill="white"/>
</clipPath>
</defs>
</svg>
