<svg width="20" height="20" viewBox="0 0 20 20" fill="none" xmlns="http://www.w3.org/2000/svg">
<g clip-path="url(#clip0_17_129)">
<path d="M13.3152 6.39583L15.0536 4.65726L15.1691 3.92561C12.0016 1.04476 6.96587 1.37171 4.10955 4.60711C3.31128 5.52392 2.73161 6.61003 2.41427 7.78352L3.03662 7.69542L6.51362 7.12306L6.78159 6.84869C7.52528 6.02644 8.55457 5.51876 9.65963 5.42915C10.7647 5.33953 11.8623 5.67473 12.7288 6.36641L13.3152 6.39583Z" fill="#EA4335"/>
<path d="M17.5287 7.73173C17.1292 6.26004 16.3086 4.93702 15.1678 3.92503L12.7276 6.36523C13.2361 6.78068 13.6436 7.30616 13.9194 7.90205C14.1952 8.49794 14.3321 9.14868 14.3197 9.80518V10.2381C14.8924 10.2381 15.4417 10.4656 15.8467 10.8706C16.2516 11.2755 16.4791 11.8248 16.4791 12.3975C16.4791 12.9702 16.2516 13.5195 15.8467 13.9244C15.4417 14.3294 14.8924 14.5569 14.3197 14.5569H9.971L9.5442 15.0206V17.6257L9.971 18.0348H14.3199C15.5313 18.0476 16.7146 17.6695 17.6942 16.9566C18.6738 16.2437 19.3974 15.2339 19.7577 14.0772C20.1179 12.9205 20.0957 11.6784 19.6942 10.5353C19.2927 9.39227 18.5332 8.4091 17.5287 7.73173Z" fill="#4285F4"/>
<path d="M5.62683 18.0354H9.97097V14.5584H5.62683C5.31946 14.5582 5.01574 14.4918 4.73635 14.3636L4.12009 14.5524L2.36933 16.2908L2.2169 16.8823C3.197 17.629 4.39472 18.034 5.62683 18.0354Z" fill="#34A853"/>
<path d="M5.6278 6.75676C4.45096 6.76393 3.30573 7.13845 2.35206 7.82802C1.39838 8.5176 0.683872 9.4878 0.308317 10.6031C-0.0672387 11.7185 -0.0850905 12.9232 0.257255 14.0492C0.5996 15.1752 1.28505 16.1661 2.21787 16.8837L4.73748 14.3641C4.41732 14.2194 4.13702 13.9993 3.92065 13.7225C3.70428 13.4457 3.55828 13.1206 3.4952 12.775C3.43211 12.4293 3.45382 12.0736 3.55846 11.7382C3.66309 11.4028 3.84753 11.0979 4.09595 10.8494C4.34437 10.601 4.64935 10.4166 4.98473 10.3119C5.3201 10.2073 5.67586 10.1856 6.02146 10.2487C6.36707 10.3118 6.69222 10.4578 6.969 10.6741C7.24578 10.8905 7.46593 11.1708 7.61056 11.491L10.1302 8.97137C9.60133 8.28 8.91972 7.72034 8.13865 7.33616C7.35759 6.95197 6.49824 6.75367 5.6278 6.75676Z" fill="#FBBC05"/>
</g>
<defs>
<clipPath id="clip0_17_129">
<rect width="20" height="20" fill="white"/>
</clipPath>
</defs>
</svg>
