<svg width="16" height="13" viewBox="0 0 16 13" fill="none" xmlns="http://www.w3.org/2000/svg">
<path d="M3.93333 5.87472C3.05104 5.07798 2.19685 4.30663 1.34267 3.53527C1.01031 3.23513 0.674883 2.9383 0.346376 2.63399C-0.0693972 2.24884 -0.110119 1.70304 0.241052 1.31881C0.584759 0.942741 1.12972 0.917677 1.53919 1.28365C2.98378 2.57479 4.42429 3.87048 5.86075 5.17072C6.32495 5.59105 6.32822 6.16408 5.86579 6.58391C4.43807 7.88011 3.00552 9.17098 1.56813 10.4565C1.13326 10.8459 0.576202 10.8263 0.228335 10.4326C-0.120557 10.0379 -0.0665159 9.49077 0.369133 9.09696C1.46746 8.10413 2.56732 7.11298 3.66869 6.12352C3.74913 6.05101 3.82662 5.97522 3.93333 5.87472Z" fill="#001333"/>
<path d="M11.4519 10.7344C10.2912 10.7344 9.13041 10.7342 7.96966 10.7339C7.40432 10.7331 7.0245 10.3634 7.02736 9.8231C7.03013 9.29962 7.41066 8.93399 7.96202 8.93351C10.2835 8.93149 12.605 8.93079 14.9265 8.93142C15.4712 8.93157 15.85 9.3033 15.8509 9.83022C15.8519 10.3662 15.482 10.7349 14.9341 10.7359C13.7734 10.738 12.6127 10.7382 11.4519 10.7365L11.4519 10.7344Z" fill="#001333"/>
</svg>
