<svg width="20" height="20" viewBox="0 0 20 20" fill="none" xmlns="http://www.w3.org/2000/svg">
  <rect x="1" y="1" width="18" height="18" rx="4" fill="#F9A33F"/>
  <path d="M5.5 11.5C5.5 13 6.4 14 7.9 14C9.4 14 10.3 13 10.3 11.5V6.8H8.9V11.4C8.9 12.1 8.5 12.5 7.9 12.5C7.3 12.5 6.9 12.1 6.9 11.4V6.8H5.5V11.5Z" fill="white"/>
  <path d="M11.2 6.8V14H12.6V12.3C12.9 12.8 13.4 13.1 14.1 13.1C15.3 13.1 16.1 12.3 16.1 11.1V6.8H14.7V10.8C14.7 11.5 14.3 11.9 13.7 11.9C13.1 11.9 12.7 11.5 12.7 10.8V6.8H11.2Z" fill="white"/>
  <path d="M6 15.6C6.6 16.2 7.6 16.6 8.8 16.6C10.9 16.6 12.4 15.4 12.5 13.7H11.1C10.9 14.5 10 15 8.8 15C8 15 7.4 14.8 7 14.4L6 15.6Z" fill="white" opacity="0.9"/>
</svg>

