<svg width="172" height="179" viewBox="0 0 172 179" fill="none" xmlns="http://www.w3.org/2000/svg">
<mask id="mask0_17_68" style="mask-type:alpha" maskUnits="userSpaceOnUse" x="32" y="27" width="120" height="135">
<path fill-rule="evenodd" clip-rule="evenodd" d="M128.335 64.6991C140.379 79.052 143.448 97.8299 138.008 113.82L150.164 128.307C151.849 130.315 151.588 133.31 149.579 134.996L119.83 159.958C117.821 161.644 114.826 161.381 113.141 159.373L100.986 144.887C84.2939 147.469 66.3326 141.184 54.289 126.831C40.3084 110.17 34.385 57.5982 32.4442 35.0792L76.5878 87.6875C73.6803 93.3984 74.3887 100.714 78.9374 106.135C84.9277 113.274 95.3085 114.424 102.124 108.705C108.94 102.986 109.61 92.5628 103.62 85.4238C99.0651 79.996 91.9718 78.0301 85.8375 79.9137L41.6159 27.2124C63.3698 33.0045 114.322 47.9982 128.335 64.6991Z" fill="#53CBFF"/>
</mask>
<g mask="url(#mask0_17_68)">
<path d="M-3.8627 58.884L76.7306 -8.74195L180.534 114.966L99.9409 182.592L-3.8627 58.884Z" fill="white" fill-opacity="0.7"/>
<path d="M34.6592 26.5611L76.7244 -8.73586L180.528 114.972L138.463 150.269L34.6592 26.5611Z" fill="white"/>
<path d="M91.9014 153.839L152.938 102.972L172.622 124.51L96.4072 188.462L91.9014 153.839Z" fill="#A0BAFC" fill-opacity="0.47"/>
</g>
</svg>
