<svg width="22" height="16" viewBox="0 0 22 16" fill="none" xmlns="http://www.w3.org/2000/svg">
<path d="M8.5876 7.1239C8.13385 6.97725 8.13385 6.35599 8.5876 6.20933L11.251 5.34943C11.8365 5.16015 12.3684 4.84125 12.8047 4.41801C13.241 3.99476 13.5696 3.4788 13.7645 2.91102L14.6514 0.329965C14.8026 -0.109988 15.4434 -0.109988 15.5946 0.329965L16.4815 2.91236C16.6767 3.48003 17.0056 3.99582 17.4421 4.41883C17.8787 4.84185 18.4108 5.16046 18.9964 5.34943L21.6584 6.20933C21.7578 6.24095 21.8443 6.30219 21.9056 6.3843C21.967 6.46642 22 6.56522 22 6.66662C22 6.76801 21.967 6.86682 21.9056 6.94893C21.8443 7.03105 21.7578 7.09229 21.6584 7.1239L18.995 7.98381C18.4097 8.17295 17.8778 8.49165 17.4415 8.91465C17.0053 9.33766 16.6766 9.85335 16.4815 10.4209L15.5946 13.0033C15.562 13.0996 15.4989 13.1835 15.4142 13.243C15.3295 13.3025 15.2276 13.3345 15.123 13.3345C15.0184 13.3345 14.9165 13.3025 14.8318 13.243C14.7471 13.1835 14.684 13.0996 14.6514 13.0033L13.7645 10.4209C13.5694 9.85335 13.2407 9.33766 12.8045 8.91465C12.3682 8.49165 11.8363 8.17295 11.251 7.98381L8.5876 7.1239ZM1.57645 12.274C1.5169 12.2549 1.46508 12.2181 1.42836 12.1688C1.39163 12.1195 1.37186 12.0602 1.37186 11.9994C1.37186 11.9386 1.39163 11.8793 1.42836 11.83C1.46508 11.7807 1.5169 11.7439 1.57645 11.7247L3.1742 11.2088C3.88646 10.9782 4.44471 10.4369 4.68259 9.74629L5.21471 8.19712C5.23443 8.13939 5.27241 8.08915 5.32326 8.05354C5.37411 8.01793 5.43524 7.99876 5.49796 7.99876C5.56069 7.99876 5.62182 8.01793 5.67267 8.05354C5.72352 8.08915 5.7615 8.13939 5.78121 8.19712L6.31334 9.74629C6.43038 10.0869 6.62762 10.3964 6.88943 10.6502C7.15125 10.9041 7.47044 11.0953 7.82172 11.2088L9.41948 11.7247C9.47903 11.7439 9.53084 11.7807 9.56757 11.83C9.6043 11.8793 9.62406 11.9386 9.62406 11.9994C9.62406 12.0602 9.6043 12.1195 9.56757 12.1688C9.53084 12.2181 9.47903 12.2549 9.41948 12.274L7.82172 12.79C7.47044 12.9034 7.15125 13.0947 6.88943 13.3485C6.62762 13.6024 6.43038 13.9119 6.31334 14.2525L5.78122 15.8016C5.7615 15.8594 5.72352 15.9096 5.67267 15.9452C5.62182 15.9808 5.56069 16 5.49796 16C5.43524 16 5.37411 15.9808 5.32326 15.9452C5.27241 15.9096 5.23443 15.8594 5.21471 15.8016L4.68259 14.2525C4.56555 13.9119 4.36831 13.6024 4.10649 13.3485C3.84468 13.0947 3.52548 12.9034 3.1742 12.79L1.57645 12.274ZM0.134066 2.8497C0.0949146 2.83654 0.0609652 2.81187 0.0369379 2.77914C0.0129106 2.74641 -5.81046e-07 2.70723 -5.82802e-07 2.66705C-5.84558e-07 2.62687 0.0129106 2.58769 0.0369379 2.55496C0.0609652 2.52222 0.0949146 2.49756 0.134066 2.4844L1.19832 2.14044C1.67407 1.98712 2.0467 1.62583 2.20482 1.16454L2.55958 0.132655C2.57315 0.094694 2.59858 0.061776 2.63235 0.0384787C2.66611 0.0151824 2.70651 0.00266445 2.74795 0.00266445C2.78939 0.00266444 2.8298 0.0151824 2.86356 0.0384787C2.89732 0.061776 2.92275 0.094694 2.93633 0.132655L3.29108 1.16454C3.36907 1.39187 3.50065 1.59843 3.67537 1.76783C3.85009 1.93724 4.06313 2.06482 4.29758 2.14044L5.36184 2.4844C5.40099 2.49756 5.43494 2.52222 5.45897 2.55496C5.48299 2.58769 5.4959 2.62687 5.4959 2.66705C5.4959 2.70723 5.48299 2.74641 5.45897 2.77914C5.43494 2.81187 5.40099 2.83654 5.36184 2.8497L4.29758 3.19366C4.06313 3.26928 3.85009 3.39686 3.67537 3.56626C3.50065 3.73567 3.36907 3.94223 3.29108 4.16955L2.93633 5.20011C2.92275 5.23807 2.89732 5.27099 2.86356 5.29428C2.8298 5.31758 2.78939 5.3301 2.74795 5.3301C2.70651 5.3301 2.66611 5.31758 2.63235 5.29428C2.59859 5.27099 2.57315 5.23807 2.55958 5.20011L2.20482 4.16822C2.0467 3.70694 1.67407 3.34564 1.19832 3.19233L0.134066 2.8497Z" fill="#F9C077"/>
</svg>
